<svg width="16" height="16" viewBox="0 0 16 16" fill="none" xmlns="http://www.w3.org/2000/svg">
<path d="M3.05025 3.05025C2.01399 4.08651 1.3291 5.42187 1.09212 6.86808C0.855149 8.31429 1.07805 9.7984 1.7294 11.1112C2.38075 12.424 3.42769 13.4992 4.72264 14.1854C6.01759 14.8715 7.49523 15.1339 8.94724 14.9356C10.3993 14.7373 11.7524 14.0883 12.8159 13.08C13.8795 12.0718 14.5998 10.7552 14.8752 9.31578C15.1507 7.87641 14.9675 6.38688 14.3514 5.05718C13.7353 3.72748 12.7174 2.62468 11.4412 1.90425L10.4602 3.64206C11.3725 4.15711 12.1002 4.94552 12.5407 5.89614C12.9811 6.84676 13.1121 7.91165 12.9152 8.94067C12.7183 9.9697 12.2033 10.911 11.443 11.6318C10.6827 12.3526 9.71526 12.8166 8.6772 12.9584C7.63913 13.1001 6.58274 12.9125 5.65697 12.422C4.73119 11.9315 3.98271 11.1628 3.51705 10.2242C3.05139 9.2857 2.89204 8.22469 3.06146 7.19078C3.23087 6.15686 3.72051 5.20219 4.46135 4.46135L3.05025 3.05025Z" fill="#8DA5F3"/>
<path d="M8 7.5L15.5 0H8V7.5Z" fill="#8DA5F3"/>
</svg>
